<svg width="55" height="43" viewBox="0 0 55 43" fill="none" xmlns="http://www.w3.org/2000/svg">
<g clip-path="url(#clip0_98_50)">
<path d="M11.8716 11.5715C11.8716 20.2094 18.87 27.2129 27.5015 27.2129C27.5015 18.5751 20.5031 11.5715 11.8716 11.5715Z" stroke="white" stroke-width="0.8" stroke-miterlimit="10"/>
<path d="M0.206692 27.0615C6.31133 33.1706 16.2063 33.1706 22.3109 27.0615C16.2063 20.9523 6.31133 20.9523 0.206692 27.0615Z" stroke="white" stroke-width="0.8" stroke-miterlimit="10"/>
<path d="M11.7173 42.8543C20.3488 42.8543 27.3472 35.8508 27.3472 27.2129C18.7157 27.2129 11.7173 34.2165 11.7173 42.8543Z" stroke="white" stroke-width="0.8" stroke-miterlimit="10"/>
<path d="M43.1313 11.5715C43.1313 20.2094 36.133 27.2129 27.5015 27.2129C27.5015 18.5751 34.4998 11.5715 43.1313 11.5715Z" stroke="white" stroke-width="0.8" stroke-miterlimit="10"/>
<path d="M22.6166 0.206842C28.7212 6.31599 28.7212 16.2182 22.6166 22.3274C16.5119 16.2182 16.5119 6.31599 22.6166 0.206842Z" stroke="white" stroke-width="0.8" stroke-miterlimit="10"/>
<path d="M31.7721 0.311722C37.8767 6.42087 37.8767 16.3231 31.7721 22.4322C25.6674 16.3231 25.6674 6.42087 31.7721 0.311722Z" stroke="white" stroke-width="0.8" stroke-miterlimit="10"/>
<path d="M54.7962 27.0615C48.6916 33.1706 38.7966 33.1706 32.692 27.0615C38.7966 20.9523 48.6916 20.9523 54.7962 27.0615Z" stroke="white" stroke-width="0.8" stroke-miterlimit="10"/>
<path d="M43.2827 42.8543C34.6512 42.8543 27.6528 35.8508 27.6528 27.2129C36.2843 27.2129 43.2827 34.2165 43.2827 42.8543Z" stroke="white" stroke-width="0.8" stroke-miterlimit="10"/>
<path d="M27.4549 14.2139C25.6791 14.2139 24.0663 14.9247 22.8873 16.0755C25.7635 18.913 27.548 22.8547 27.548 27.2129C27.548 22.9013 29.2918 18.9946 32.1127 16.1658C30.9279 14.9597 29.2772 14.211 27.4549 14.211V14.2139Z" stroke="white" stroke-width="0.8" stroke-miterlimit="10"/>
<path d="M45.3409 22.5546C49.1195 19.0121 51.0612 13.672 50.0191 8.20379C47.303 8.72236 45.172 9.7187 43.1954 11.3793C43.2885 11.3793 43.0964 11.5715 43.1925 11.5715C43.1925 16.5154 40.8985 20.9203 37.3207 23.7869C37.3207 23.819 37.3207 23.851 37.3236 23.886C39.8534 22.7323 42.6248 22.2895 45.3409 22.5546Z" stroke="white" stroke-width="0.8" stroke-miterlimit="10"/>
<path d="M9.79305 22.5546C6.0144 19.0121 4.07267 13.672 5.11486 8.20379C7.83094 8.72236 9.96189 9.7187 11.9385 11.3793C11.8454 11.3793 12.0375 11.5715 11.9415 11.5715C11.9415 16.5154 14.2354 20.9203 17.8132 23.7869C17.8132 23.819 17.8132 23.851 17.8103 23.886C15.2805 22.7323 12.5091 22.2895 9.79305 22.5546Z" stroke="white" stroke-width="0.8" stroke-miterlimit="10"/>
</g>
<defs>
<clipPath id="clip0_98_50">
<rect width="55" height="43" fill="white"/>
</clipPath>
</defs>
</svg>
