<svg width="667" height="521" viewBox="0 0 667 521" fill="none" xmlns="http://www.w3.org/2000/svg">
<path d="M143.563 139.837C143.563 244.742 228.605 329.777 333.5 329.777C333.5 224.872 248.458 139.837 143.563 139.837Z" stroke="#9EA2AD" stroke-opacity="0.24" stroke-width="3" stroke-miterlimit="10"/>
<path d="M1.80103 327.917C75.9782 402.095 196.24 402.095 270.417 327.917C196.24 253.738 75.9782 253.738 1.80103 327.917Z" stroke="#9EA2AD" stroke-opacity="0.24" stroke-width="3" stroke-miterlimit="10"/>
<path d="M141.694 519.726C246.597 519.726 331.631 434.682 331.631 329.785C226.728 329.785 141.694 414.829 141.694 519.726Z" stroke="#9EA2AD" stroke-opacity="0.24" stroke-width="3" stroke-miterlimit="10"/>
<path d="M523.437 139.837C523.437 244.742 438.395 329.777 333.5 329.777C333.5 224.872 418.542 139.837 523.437 139.837Z" stroke="#9EA2AD" stroke-opacity="0.24" stroke-width="3" stroke-miterlimit="10"/>
<path d="M274.146 1.80095C348.323 75.9795 348.323 196.244 274.146 270.422C199.969 196.244 199.969 75.9795 274.146 1.80095Z" stroke="#9EA2AD" stroke-opacity="0.24" stroke-width="3" stroke-miterlimit="10"/>
<path d="M60.5938 98.9416C163.637 118.582 231.256 218.033 211.616 321.087C108.573 301.446 40.9622 201.995 60.5938 98.9416Z" stroke="#9EA2AD" stroke-opacity="0.24" stroke-width="3" stroke-miterlimit="10"/>
<path d="M606.406 98.9416C503.363 118.582 435.744 218.033 455.384 321.087C558.427 301.446 626.046 201.995 606.406 98.9416Z" stroke="#9EA2AD" stroke-opacity="0.24" stroke-width="3" stroke-miterlimit="10"/>
<path d="M385.404 3.08369C459.581 77.2623 459.581 197.526 385.404 271.705C311.226 197.526 311.226 77.2623 385.404 3.08369Z" stroke="#9EA2AD" stroke-opacity="0.24" stroke-width="3" stroke-miterlimit="10"/>
<path d="M665.199 327.917C591.022 402.095 470.76 402.095 396.583 327.917C470.76 253.738 591.022 253.738 665.199 327.917Z" stroke="#9EA2AD" stroke-opacity="0.24" stroke-width="3" stroke-miterlimit="10"/>
<path d="M525.306 519.726C420.403 519.726 335.369 434.682 335.369 329.785C440.272 329.785 525.306 414.829 525.306 519.726Z" stroke="#9EA2AD" stroke-opacity="0.24" stroke-width="3" stroke-miterlimit="10"/>
<path d="M332.362 330.83C376.247 330.83 411.823 295.254 411.823 251.368C411.823 207.482 376.247 171.905 332.362 171.905C288.477 171.905 252.901 207.482 252.901 251.368C252.901 295.254 288.477 330.83 332.362 330.83Z" stroke="#9EA2AD" stroke-opacity="0.24" stroke-width="3" stroke-miterlimit="10"/>
</svg>
